<svg width="108" height="108" viewBox="0 0 108 108" fill="none" xmlns="http://www.w3.org/2000/svg">
<rect width="108" height="108" rx="10" fill="white"/>
<path d="M39.508 69.7132H74.3216C74.4282 69.7132 74.5315 69.6981 74.6307 69.6744C74.6386 69.6744 74.6452 69.6758 74.6531 69.6758C75.3963 69.6758 76 69.074 76 68.3318V30.3441C76.0001 29.6021 75.3963 29 74.6531 29H74.3243H41.6622H39.5099C35.9248 29 33.0086 31.9106 33.0086 35.4871C33.0086 35.5351 33.0181 35.5806 33.0228 35.6269C33.0181 38.9307 32.977 69.2886 33.0181 73.2795C33.0155 73.3575 33.006 73.4337 33.006 73.5125C33.006 76.9516 35.7045 79.7669 39.0988 79.9797C39.1669 79.9901 39.2336 80 39.3043 80H74.653C75.3961 80 75.9999 79.3982 75.9999 78.6559V73.5967C75.9999 72.855 75.396 72.2526 74.653 72.2526C73.9099 72.2526 73.306 72.8551 73.306 73.5967V77.312H39.508C37.4612 77.312 35.7904 75.6903 35.7083 73.6682C35.7103 73.6321 35.7168 73.598 35.7162 73.5613C35.7148 73.5022 35.7128 73.4104 35.7115 73.2882C35.8292 71.2981 37.4846 69.7132 39.508 69.7132ZM40.4265 35.4871C40.4265 34.7452 41.0299 34.1431 41.7734 34.1431C42.5169 34.1431 43.1203 34.7452 43.1203 35.4871V62.7887C43.1203 63.5303 42.5169 64.1327 41.7734 64.1327C41.0299 64.1327 40.4265 63.5301 40.4265 62.7887V35.4871Z" fill="#2F80ED"/>
</svg>
